<svg xmlns="http://www.w3.org/2000/svg" width="820" height="1500" viewBox="0 0 820 1500" fill="none">
  <defs>
    <filter id="shadow" x="80" y="20" width="660" height="1440" filterUnits="userSpaceOnUse" color-interpolation-filters="sRGB">
      <feDropShadow dx="0" dy="28" stdDeviation="28" flood-color="#1F1A14" flood-opacity="0.22"/>
    </filter>
    <linearGradient id="screen" x1="240" y1="98" x2="690" y2="1240" gradientUnits="userSpaceOnUse">
      <stop stop-color="#FFFCF7"/>
      <stop offset="0.55" stop-color="#F7F0E8"/>
      <stop offset="1" stop-color="#FFFDF8"/>
    </linearGradient>
    <linearGradient id="brand" x1="215" y1="210" x2="286" y2="281" gradientUnits="userSpaceOnUse">
      <stop stop-color="#A46B3A"/>
      <stop offset="1" stop-color="#6B4423"/>
    </linearGradient>
    <linearGradient id="button" x1="210" y1="1210" x2="610" y2="1290" gradientUnits="userSpaceOnUse">
      <stop stop-color="#A46B3A"/>
      <stop offset="1" stop-color="#7A4B25"/>
    </linearGradient>
    <linearGradient id="clipA" x1="210" y1="380" x2="408" y2="600" gradientUnits="userSpaceOnUse">
      <stop stop-color="#777"/>
      <stop offset="1" stop-color="#1B1B1B"/>
    </linearGradient>
    <linearGradient id="clipB" x1="426" y1="380" x2="624" y2="600" gradientUnits="userSpaceOnUse">
      <stop stop-color="#D8D6D3"/>
      <stop offset="1" stop-color="#3E3B38"/>
    </linearGradient>
  </defs>

  <g filter="url(#shadow)">
    <rect x="114" y="54" width="592" height="1388" rx="94" fill="#090909"/>
    <rect x="126" y="66" width="568" height="1364" rx="84" fill="#1A1A1A"/>
    <rect x="146" y="86" width="528" height="1324" rx="66" fill="url(#screen)"/>
    <rect x="328" y="88" width="164" height="46" rx="23" fill="#060606"/>
    <circle cx="466" cy="111" r="8" fill="#0F204D"/>

    <text x="198" y="126" fill="#1F1A14" font-family="Inter, Arial, sans-serif" font-size="20" font-weight="700">9:41</text>
    <rect x="590" y="108" width="26" height="13" rx="3" stroke="#1F1A14" stroke-width="2"/>
    <rect x="618" y="112" width="3" height="5" rx="1.5" fill="#1F1A14"/>
    <path d="M546 122c9-9 24-9 33 0" stroke="#1F1A14" stroke-width="4" stroke-linecap="round"/>
    <rect x="512" y="115" width="5" height="10" rx="2" fill="#1F1A14"/>
    <rect x="522" y="110" width="5" height="15" rx="2" fill="#1F1A14"/>
    <rect x="532" y="104" width="5" height="21" rx="2" fill="#1F1A14"/>

    <rect x="190" y="178" width="72" height="72" rx="18" fill="url(#brand)"/>
    <text x="205" y="225" fill="#FFF8EE" font-family="Georgia, serif" font-size="28" font-weight="700">LeT</text>
    <text x="286" y="210" fill="#1F1A14" font-family="Inter, Arial, sans-serif" font-size="26" font-weight="800">AUTO-CLIP</text>
    <text x="286" y="238" fill="#736B63" font-family="Inter, Arial, sans-serif" font-size="15">AI klipper. Du publicerar.</text>
    <rect x="548" y="198" width="88" height="34" rx="17" fill="#F3F6F1" stroke="#AFC1AD"/>
    <text x="573" y="220" fill="#57765E" font-family="Inter, Arial, sans-serif" font-size="13" font-weight="700" text-anchor="middle">Smart edit</text>

    <text x="190" y="306" fill="#1F1A14" font-family="Inter, Arial, sans-serif" font-size="19" font-weight="800">Uppladdade källklipp</text>
    <g>
      <rect x="190" y="332" width="214" height="250" rx="14" fill="url(#clipA)"/>
      <path d="M216 332h34l-12 250h-34z" fill="#FFFFFF" opacity="0.18"/>
      <circle cx="330" cy="406" r="32" fill="#AFAFAF" opacity="0.55"/>
      <path d="M326 440c48 26 56 66 54 142H244c6-76 28-123 82-142z" fill="#BEBEBE" opacity="0.45"/>
      <text x="226" y="445" fill="white" font-family="Inter, Arial, sans-serif" font-size="20" font-weight="800">Owning a</text>
      <text x="226" y="470" fill="white" font-family="Inter, Arial, sans-serif" font-size="20" font-weight="800">restaurant:</text>
      <rect x="212" y="544" width="48" height="26" rx="8" fill="#111" opacity="0.86"/>
      <text x="236" y="562" fill="white" font-family="Inter, Arial, sans-serif" font-size="14" font-weight="800" text-anchor="middle">0:18</text>
    </g>
    <g>
      <rect x="416" y="332" width="214" height="250" rx="14" fill="url(#clipB)"/>
      <path d="M425 338h190v42H425z" fill="#FFFFFF" opacity="0.26"/>
      <circle cx="518" cy="404" r="34" fill="#222" opacity="0.55"/>
      <path d="M480 430c58 12 96 58 102 152H440c2-78 13-127 40-152z" fill="#111" opacity="0.42"/>
      <text x="456" y="474" fill="white" font-family="Inter, Arial, sans-serif" font-size="19" font-weight="800">också göra</text>
      <text x="456" y="498" fill="white" font-family="Inter, Arial, sans-serif" font-size="19" font-weight="800">något helt nytt</text>
      <rect x="438" y="544" width="48" height="26" rx="8" fill="#111" opacity="0.86"/>
      <text x="462" y="562" fill="white" font-family="Inter, Arial, sans-serif" font-size="14" font-weight="800" text-anchor="middle">0:15</text>
    </g>

    <g font-family="Inter, Arial, sans-serif">
      <rect x="190" y="604" width="440" height="82" rx="15" fill="#FFFDF9" stroke="#E2D8CE"/>
      <rect x="206" y="618" width="60" height="60" rx="15" fill="#F1E6DC"/>
      <path d="M236 656c-13 0-14-19 0-19h17" stroke="#9B673B" stroke-width="4" stroke-linecap="round"/>
      <text x="284" y="636" fill="#1F1A14" font-size="17" font-weight="800">Scen 01 · Hook</text>
      <text x="284" y="660" fill="#736B63" font-size="14">Owning a restaurant:</text>
      <rect x="528" y="632" width="70" height="28" rx="14" fill="#EDF3EA"/>
      <text x="563" y="651" fill="#607B63" font-size="13" font-weight="700" text-anchor="middle">AI vald</text>

      <rect x="190" y="696" width="440" height="82" rx="15" fill="#FFFDF9" stroke="#E2D8CE"/>
      <rect x="206" y="710" width="60" height="60" rx="15" fill="#F1E6DC"/>
      <circle cx="236" cy="740" r="16" stroke="#9B673B" stroke-width="4"/>
      <text x="236" y="748" fill="#9B673B" font-size="24" text-anchor="middle">!</text>
      <text x="284" y="728" fill="#1F1A14" font-size="17" font-weight="800">Scen 02 · Visa problem</text>
      <text x="284" y="752" fill="#736B63" font-size="14">Income: €12345678</text>
      <rect x="528" y="724" width="70" height="28" rx="14" fill="#EDF3EA"/>
      <text x="563" y="743" fill="#607B63" font-size="13" font-weight="700" text-anchor="middle">AI vald</text>

      <rect x="190" y="788" width="440" height="82" rx="15" fill="#FFFDF9" stroke="#E2D8CE"/>
      <rect x="206" y="802" width="60" height="60" rx="15" fill="#F1E6DC"/>
      <circle cx="236" cy="832" r="16" stroke="#9B673B" stroke-width="3"/>
      <path d="M228 835c5 7 12 7 17 0" stroke="#9B673B" stroke-width="3" stroke-linecap="round"/>
      <text x="284" y="820" fill="#1F1A14" font-size="17" font-weight="800">Scen 03 · Punchline</text>
      <text x="284" y="844" fill="#736B63" font-size="14">också göra något helt nytt</text>
      <rect x="528" y="816" width="70" height="28" rx="14" fill="#EDF3EA"/>
      <text x="563" y="835" fill="#607B63" font-size="13" font-weight="700" text-anchor="middle">AI vald</text>

      <rect x="190" y="880" width="440" height="82" rx="15" fill="#FFFDF9" stroke="#E2D8CE"/>
      <rect x="206" y="894" width="60" height="60" rx="15" fill="#F1E6DC"/>
      <path d="M224 926l27-12v34l-27-10z" stroke="#9B673B" stroke-width="4" stroke-linejoin="round"/>
      <text x="284" y="912" fill="#1F1A14" font-size="17" font-weight="800">Scen 04 · CTA</text>
      <text x="284" y="936" fill="#736B63" font-size="14">Följ för fler företagartips!</text>
      <rect x="528" y="908" width="70" height="28" rx="14" fill="#F6EBDD"/>
      <text x="563" y="927" fill="#B07942" font-size="13" font-weight="700" text-anchor="middle">Förslag</text>
    </g>

    <text x="190" y="1010" fill="#1F1A14" font-family="Inter, Arial, sans-serif" font-size="19" font-weight="800">Redigeringsinställningar</text>
    <rect x="190" y="1030" width="126" height="48" rx="9" fill="#FFFDF9" stroke="#D8CBBE"/>
    <text x="253" y="1060" fill="#4A4239" font-family="Inter, Arial, sans-serif" font-size="13" text-anchor="middle">Auto-undertexter</text>
    <rect x="334" y="1030" width="148" height="48" rx="9" fill="#FFFDF9" stroke="#D8CBBE"/>
    <text x="408" y="1060" fill="#4A4239" font-family="Inter, Arial, sans-serif" font-size="13" text-anchor="middle">Humoristisk stil</text>
    <rect x="500" y="1030" width="130" height="48" rx="9" fill="#FFFDF9" stroke="#D8CBBE"/>
    <text x="565" y="1060" fill="#4A4239" font-family="Inter, Arial, sans-serif" font-size="13" text-anchor="middle">Format</text>

    <rect x="190" y="1100" width="440" height="78" rx="22" fill="url(#button)"/>
    <text x="410" y="1138" fill="#FFF8EE" font-family="Inter, Arial, sans-serif" font-size="18" font-weight="800" text-anchor="middle">Klipp ihop automatiskt</text>
    <text x="410" y="1162" fill="#F4E4D8" font-family="Inter, Arial, sans-serif" font-size="13" text-anchor="middle">LeT AI väljer höjdpunkter och skapar din video.</text>

    <line x1="146" y1="1198" x2="674" y2="1198" stroke="#E2D8CE"/>
    <g font-family="Inter, Arial, sans-serif" fill="#827A72" font-size="13" text-anchor="middle">
      <text x="230" y="1265">Hem</text>
      <rect x="374" y="1218" width="44" height="36" rx="10" fill="#9B673B"/>
      <text x="396" y="1265" fill="#6B4423" font-weight="800">Auto-clip</text>
      <text x="520" y="1265">Utkast</text>
      <text x="622" y="1265">Profil</text>
    </g>
  </g>
</svg>
